<svg width="238" height="288" xmlns="http://www.w3.org/2000/svg"><g fill-rule="nonzero" fill="none"><path d="M139.61 33.907c9.632-16.042 23.188-18.435 30.934-17.016a1.993 1.993 0 011.506 2.56l-2.404 7.822a1.997 1.997 0 01-2.107 1.405c-3.286-.33-10.72.334-17.152 10.56a41.713 41.713 0 0113.386 14.886c6.456 12.143 4.592 23.841 4.46 25.627a4.327 4.327 0 01-2.301 3.508 4.327 4.327 0 01-4.194-.088c-3.167 7.326-8.757 13.451-14.042 19.195-20.72 22.512-14.978 37.661-12.396 44.236 4.198 8.885.515 19.509-8.296 23.926-8.81 4.418-19.525 1.012-24.13-7.67-22.637-44.183-17.682-86.386-6.553-109.262l-3.032-1.41a3.745 3.745 0 01-2.121-2.83 3.76 3.76 0 011.18-3.34c2.034-1.858 6.362-6.142 11.86-9.065a45.023 45.023 0 0135.403-3.044z" fill="#3A4B5C"/><path d="M153.094 59.802c-7.866-14.794-26.583-20.358-42.162-12.743l11.12 5.184a8.022 8.022 0 014.073 4.314l3.636 9.164 7.774-5.309a8.07 8.07 0 018.614-.312l9.223 5.382a28.607 28.607 0 00-2.278-5.68z" fill="#78CC41"/><path d="M113.552 157.18c1.563 2.94 5.221 4.053 8.17 2.485s4.072-5.222 2.509-8.162c-2.812-7.173-11.81-28.623 14.572-57.293 5.752-6.248 10.393-11.41 12.309-17.226l-8.887-5.18-9.842 6.716a8.077 8.077 0 01-6.903 1.059 8.026 8.026 0 01-5.128-4.718l-4.9-12.358-8.196-3.815c-9.008 18.396-15.15 56.613 6.296 98.493z" fill="#FFFC85"/><path d="M183.985 69.804c9.605-15.97 5.37-29.01.5-35.159a1.985 1.985 0 00-2.955-.128l-5.756 5.772a1.99 1.99 0 00-.25 2.51c1.826 2.735 4.72 9.584-1.267 20.021a41.559 41.559 0 00-19.354-4.81c-13.7 0-23.117 7.11-24.626 8.06a4.31 4.31 0 00-2.01 3.664 4.309 4.309 0 002.04 3.647c-4.963 6.21-7.736 13.99-10.316 21.324-10.111 28.747-26.121 30.782-33.111 31.585-9.78.463-17.4 8.67-17.165 18.484.235 9.814 8.241 17.644 18.03 17.635 49.45-.753 84.252-24.845 99.168-45.329l2.658 2.008a3.73 3.73 0 003.481.542 3.745 3.745 0 002.385-2.6c.684-2.658 2.428-8.467 2.428-14.669a44.839 44.839 0 00-13.88-32.557z" fill="#3A4B5C"/><path d="M154.903 70.055c16.691 0 30.338 13.858 30.926 31.12l-9.76-7.356a7.993 7.993 0 00-5.699-1.564l-9.76 1.087 1.033-9.318a8.038 8.038 0 00-3.754-7.722l-9.047-5.594a28.502 28.502 0 016.061-.653z" fill="#78CC41"/><path d="M87.746 150.362c-3.318 0-6.007-2.696-6.007-6.023 0-3.326 2.69-6.023 6.007-6.023 7.623-.88 30.698-2.999 43.577-39.603 2.805-7.981 5.176-14.476 9.395-18.88l8.712 5.393-1.304 11.795a8.044 8.044 0 002.297 6.566 7.996 7.996 0 006.548 2.303l13.161-1.468 7.188 5.423c-11.968 16.523-42.709 39.795-89.574 40.517z" fill="#FF8A5E"/><g><path d="M224.034 66.098c9.605-15.971 5.37-29.01.5-35.16a1.985 1.985 0 00-2.955-.127l-5.757 5.772a1.99 1.99 0 00-.25 2.51c1.827 2.735 4.72 9.583-1.266 20.02a41.559 41.559 0 00-19.354-4.81c-13.7 0-23.117 7.11-24.626 8.06a4.31 4.31 0 00-2.01 3.664 4.309 4.309 0 002.04 3.647c-4.963 6.211-7.736 13.991-10.317 21.324-10.11 28.748-26.12 30.783-33.11 31.586-9.78.463-17.401 8.67-17.166 18.483.236 9.814 8.242 17.644 18.031 17.635 49.449-.753 84.252-24.845 99.168-45.328l2.658 2.007a3.73 3.73 0 003.481.542 3.745 3.745 0 002.385-2.6c.683-2.657 2.428-8.467 2.428-14.668a44.839 44.839 0 00-13.88-32.557z" fill="#3A4B5C"/><path d="M194.952 66.349c16.69 0 30.338 13.858 30.926 31.119l-9.76-7.356a7.993 7.993 0 00-5.699-1.563l-9.76 1.087 1.033-9.319a8.038 8.038 0 00-3.754-7.722l-9.047-5.594a28.502 28.502 0 016.061-.652z" fill="#78CC41"/><path d="M127.794 146.656c-3.317 0-6.006-2.697-6.006-6.023 0-3.326 2.69-6.023 6.006-6.023 7.624-.88 30.699-2.999 43.578-39.604 2.805-7.98 5.175-14.475 9.395-18.88l8.712 5.393-1.304 11.796a8.044 8.044 0 002.297 6.566 7.996 7.996 0 006.547 2.302l13.162-1.468 7.188 5.424c-11.968 16.523-42.709 39.794-89.575 40.517z" fill="#FFFC85"/></g><g><path d="M13.966 74.129c-9.605-15.971-5.37-29.011-.5-35.16a1.985 1.985 0 012.955-.128l5.757 5.772c.67.67.775 1.72.25 2.51-1.827 2.735-4.72 9.584 1.266 20.021a41.559 41.559 0 0119.354-4.81c13.7 0 23.117 7.11 24.626 8.06a4.31 4.31 0 012.01 3.664 4.309 4.309 0 01-2.04 3.647c4.963 6.211 7.736 13.99 10.317 21.324 10.11 28.747 26.12 30.783 33.11 31.586 9.78.462 17.401 8.67 17.166 18.483-.236 9.814-8.242 17.644-18.031 17.635-49.449-.753-84.252-24.845-99.168-45.329l-2.658 2.008a3.73 3.73 0 01-3.481.542 3.745 3.745 0 01-2.385-2.6c-.683-2.657-2.428-8.467-2.428-14.668a44.839 44.839 0 0113.88-32.557z" fill="#3A4B5C"/><path d="M43.048 74.38c-16.69 0-30.338 13.858-30.926 31.119l9.76-7.356a7.993 7.993 0 015.699-1.563l9.76 1.086-1.033-9.318a8.038 8.038 0 013.754-7.722l9.047-5.594a28.502 28.502 0 00-6.061-.652z" fill="#78CC41"/><path d="M110.206 154.687c3.317 0 6.006-2.697 6.006-6.023 0-3.327-2.69-6.023-6.006-6.023-7.624-.881-30.699-3-43.578-39.604-2.805-7.98-5.175-14.476-9.395-18.88l-8.712 5.393 1.304 11.795a8.044 8.044 0 01-2.297 6.566 7.996 7.996 0 01-6.547 2.303l-13.162-1.468-7.188 5.423c11.968 16.523 42.709 39.795 89.575 40.518z" fill="#FF8A5E"/></g><g><path d="M76.915 30.404c.32-18.708 10.863-27.559 18.28-30.203a1.993 1.993 0 012.585 1.463l1.83 7.977a1.997 1.997 0 01-1.123 2.27c-3.01 1.357-9.117 5.65-9.574 17.721a41.713 41.713 0 0119.035 6.2c11.663 7.287 15.898 18.35 16.677 19.963a4.327 4.327 0 01-.24 4.188 4.327 4.327 0 01-3.675 2.02c.92 7.93-.859 16.029-2.564 23.645-6.687 29.856 5.86 40.105 11.383 44.508 8.079 5.595 10.2 16.638 4.779 24.869-5.422 8.23-16.404 10.639-24.733 5.423C67.88 133.502 51.07 94.475 49.27 69.1l-3.33.295a3.745 3.745 0 01-3.252-1.39 3.76 3.76 0 01-.648-3.483c.833-2.626 2.439-8.5 5.738-13.78a45.023 45.023 0 0129.138-20.338z" fill="#3A4B5C"/><path d="M101.54 46.088c-14.21-8.879-33.2-4.34-42.885 10.045l12.223-1.07a8.022 8.022 0 015.683 1.7l7.73 6.117 4.079-8.484a8.07 8.07 0 017.304-4.578l10.678.05a28.607 28.607 0 00-4.813-3.78z" fill="#78CC41"/><path d="M115.984 150.191c2.824 1.765 6.548.9 8.318-1.933 1.77-2.832.915-6.559-1.909-8.324-6.02-4.805-24.538-18.883-16.026-56.902 1.857-8.287 3.295-15.078 2.046-21.073l-10.286-.042-5.165 10.736a8.077 8.077 0 01-5.449 4.37 8.026 8.026 0 01-6.8-1.523L70.29 67.248l-9.005.794c1.398 20.436 15.186 56.603 54.7 82.15z" fill="#FF6A75"/></g><g fill="#3A4B5C"><path d="M225.968 142.387v-19.415c0-3.218-3.024-5.825-6.753-5.825H16.613c-3.729 0-6.753 2.607-6.753 5.825v19.415c0 3.218 3.024 5.824 6.753 5.824h9.547c-10.324 18.697-16.3 39.452-16.3 59.022 0 18.969 5.702 34.292 15.436 46.368v22.75c0 6.431 5.186 11.649 11.577 11.649 6.392 0 11.578-5.218 11.578-11.65v-3.635C67.239 283.054 91.45 288 117.914 288c26.464 0 50.675-4.946 69.464-15.285v3.636c0 6.431 5.185 11.649 11.577 11.649 6.391 0 11.577-5.218 11.577-11.65v-22.749c9.735-12.076 15.436-27.4 15.436-46.368 0-19.57-5.976-40.325-16.3-59.022h9.547c3.729 0 6.753-2.606 6.753-5.824z"/></g><path d="M73.44 221.618c-6.101 0-11.407-1.12-15.919-3.357-4.511-2.237-7.972-5.413-10.382-9.528-2.41-4.115-3.614-8.899-3.614-14.351 0-7.561 1.423-14.274 4.268-20.138 2.845-5.864 6.703-10.403 11.574-13.618 4.87-3.214 10.28-4.822 16.226-4.822 5.537 0 9.741 1.428 12.612 4.282 2.871 2.855 4.307 6.623 4.307 11.304 0 3.137-.551 5.658-1.654 7.56-1.102 1.904-2.678 2.856-4.73 2.856-1.435 0-2.563-.335-3.383-1.004-.82-.668-1.23-1.645-1.23-2.931 0-.463.102-1.312.307-2.547l.108-.564c.236-1.282.354-2.329.354-3.139 0-4.68-2.487-7.021-7.46-7.021-3.384 0-6.613 1.106-9.69 3.318-3.076 2.211-5.562 5.465-7.46 9.76-1.896 4.295-2.844 9.4-2.844 15.315 0 6.172 1.717 10.943 5.152 14.312 3.435 3.37 8.51 5.054 15.227 5.054 3.332 0 6.703-.424 10.112-1.273 3.41-.849 7.19-2.148 11.343-3.896.77-.309 1.41-.463 1.923-.463.82 0 1.436.308 1.846.926.41.617.615 1.414.615 2.391 0 3.138-1.692 5.453-5.076 6.944a52.729 52.729 0 01-11.343 3.51c-3.922.747-7.652 1.12-11.189 1.12zm64.29-17.592c.667 0 1.192.309 1.577.926.384.617.577 1.466.577 2.546 0 2.058-.487 3.652-1.461 4.784-2.359 2.726-4.781 4.964-7.268 6.712-2.486 1.75-5.319 2.624-8.497 2.624-2.615 0-4.589-.759-5.922-2.276-1.333-1.518-2-3.717-2-6.597 0-1.44.36-4.012 1.077-7.716l.184-.912c.544-2.752.816-4.685.816-5.8 0-.823-.282-1.235-.846-1.235-.666 0-1.615.862-2.845 2.585-1.23 1.723-2.461 4-3.692 6.828a55.262 55.262 0 00-2.83 8.28l-.169.67c-.974 4.115-3.384 6.173-7.229 6.173-1.538 0-2.55-.553-3.037-1.66-.47-1.067-.714-2.962-.73-5.684v-.295c0-1.646.025-2.957.076-3.935l.077-6.172c0-7.921.807-16.177 2.422-24.767 1.615-8.59 4-15.804 7.152-21.642 3.153-5.838 6.934-8.757 11.343-8.757 2.359 0 4.268 1.016 5.73 3.048 1.46 2.031 2.191 4.667 2.191 7.908 0 5.195-1.512 10.583-4.537 16.164-3.025 5.58-7.947 12.1-14.765 19.559-.154 2.675-.23 5.426-.23 8.255 1.69-4.372 3.575-7.934 5.651-10.686 2.077-2.751 4.127-4.719 6.153-5.902 2.025-1.183 3.883-1.775 5.575-1.775 3.332 0 4.999 1.672 4.999 5.016l-.004.283c-.049 2.056-.612 5.587-1.688 10.595l-.14.645c-.88 4.115-1.321 6.858-1.321 8.228 0 2.058.743 3.087 2.23 3.087 1.025 0 2.243-.63 3.653-1.89l.298-.273c1.374-1.274 3.158-3.228 5.354-5.862.615-.72 1.307-1.08 2.076-1.08zm-22.84-47.682c-.922 0-1.948 1.325-3.076 3.974-1.128 2.649-2.217 6.224-3.268 10.724-1.051 4.501-1.91 9.4-2.576 14.698a55.235 55.235 0 007.882-12.267c2.077-4.424 3.115-8.436 3.115-12.036 0-1.646-.18-2.907-.539-3.781-.358-.875-.871-1.312-1.538-1.312zm28.839 23.841c-2.153 0-3.768-.501-4.845-1.504-1.077-1.003-1.615-2.405-1.615-4.205 0-1.8.705-3.305 2.115-4.514 1.41-1.209 3.166-1.813 5.268-1.813 1.897 0 3.435.463 4.614 1.389 1.179.926 1.769 2.237 1.769 3.935 0 2.057-.667 3.69-2 4.9-1.333 1.208-3.102 1.812-5.306 1.812zm-.615 41.433c-3.333 0-5.755-1.183-7.268-3.55-1.512-2.366-2.268-5.503-2.268-9.412 0-2.315.294-5.286.884-8.912.55-3.384 1.246-6.556 2.086-9.515l.183-.63c.461-1.647 1.076-2.778 1.845-3.396.77-.617 2-.926 3.692-.926 2.614 0 3.922.875 3.922 2.624l-.003.186c-.043 1.374-.529 4.296-1.458 8.764l-.229 1.06c-1.078 5.08-1.617 8.558-1.617 10.436 0 1.543.205 2.726.615 3.55.41.822 1.102 1.234 2.076 1.234.923 0 2.077-.643 3.461-1.93l.304-.286c1.346-1.293 3.09-3.23 5.233-5.809.615-.72 1.307-1.08 2.076-1.08.667 0 1.192.309 1.577.926.384.617.577 1.466.577 2.546 0 1.972-.448 3.519-1.342 4.64l-.12.144c-5.075 6.224-9.817 9.336-14.226 9.336zm38.605-17.592c.666 0 1.192.309 1.576.926.385.617.577 1.466.577 2.546 0 1.972-.447 3.519-1.342 4.64l-.12.144c-2.204 2.726-4.6 4.964-7.19 6.712-2.589 1.75-5.524 2.624-8.805 2.624-4.512 0-7.857-2.058-10.036-6.173-2.179-4.115-3.268-9.438-3.268-15.97 0-6.276.807-13.426 2.422-21.45 1.615-8.024 4-14.917 7.152-20.678 3.153-5.76 6.909-8.641 11.266-8.641 2.461 0 4.397 1.144 5.807 3.433 1.41 2.29 2.114 5.568 2.114 9.838 0 6.12-1.691 13.219-5.075 21.294-3.384 8.076-7.972 16.074-13.766 23.996.36 2.109.949 3.613 1.77 4.513.82.9 1.896 1.35 3.229 1.35 2.102 0 3.948-.604 5.537-1.813 1.59-1.208 3.614-3.279 6.075-6.21.615-.72 1.308-1.08 2.077-1.08zm-9.46-47.682c-1.179 0-2.512 2.135-3.998 6.404-1.487 4.27-2.794 9.567-3.922 15.894-1.128 6.327-1.743 12.396-1.846 18.209 3.64-6.018 6.537-12.05 8.69-18.093 2.153-6.044 3.23-11.56 3.23-16.55l-.004-.469c-.056-3.596-.772-5.395-2.15-5.395zm15.996 23.841c-2.153 0-3.768-.501-4.845-1.504-1.076-1.003-1.614-2.405-1.614-4.205 0-1.8.704-3.305 2.114-4.514s3.166-1.813 5.268-1.813c1.897 0 3.435.463 4.614 1.389 1.18.926 1.77 2.237 1.77 3.935 0 2.057-.667 3.69-2 4.9-1.333 1.208-3.102 1.812-5.307 1.812zm-7.382 41.433c-1.64 0-2.769-.335-3.384-1.003-.615-.67-.923-1.724-.923-3.164l.003-.18a30.66 30.66 0 01.151-1.98c.82-9.413 2.179-17.977 4.076-25.693.41-1.594 1.09-2.713 2.038-3.356.948-.643 2.473-.965 4.575-.965 2.205 0 3.307.9 3.307 2.7l-.003.136c-.014.278-.064.722-.15 1.33-2.308 11.008-3.692 20.241-4.153 27.7-.103 1.646-.59 2.803-1.461 3.472-.872.668-2.23 1.003-4.076 1.003zM61.861 253.176c-1.873 0-3.54-.403-5-1.21a8.6 8.6 0 01-3.419-3.431c-.82-1.48-1.23-3.197-1.23-5.153 0-1.955.42-3.672 1.257-5.152a8.733 8.733 0 013.473-3.431c1.478-.807 3.154-1.21 5.028-1.21.937 0 1.828.098 2.675.295a9.918 9.918 0 012.27.807l-.324 2.96c-1.567-.735-3.117-1.103-4.648-1.103-1.334 0-2.473.291-3.42.874a5.568 5.568 0 00-2.148 2.422c-.487 1.032-.73 2.21-.73 3.538 0 1.328.239 2.507.716 3.539a5.51 5.51 0 002.122 2.421c.937.583 2.072.875 3.406.875.846 0 1.644-.09 2.391-.27.748-.179 1.518-.448 2.311-.807l.325 2.933c-1.514.736-3.199 1.103-5.055 1.103zm15.947 0c-1.802 0-3.406-.403-4.811-1.21-1.406-.808-2.51-1.951-3.311-3.431-.802-1.48-1.203-3.197-1.203-5.153 0-1.955.401-3.672 1.203-5.152s1.905-2.624 3.31-3.431c1.406-.807 3.01-1.21 4.812-1.21 1.802 0 3.405.403 4.81 1.21 1.406.807 2.51 1.95 3.311 3.43.802 1.48 1.203 3.198 1.203 5.153 0 1.956-.4 3.673-1.203 5.153-.801 1.48-1.905 2.623-3.31 3.43-1.406.808-3.01 1.211-4.811 1.211zm0-3.013c1.928 0 3.41-.628 4.446-1.884 1.036-1.255 1.554-2.888 1.554-4.897 0-2.009-.518-3.641-1.554-4.897-1.036-1.255-2.518-1.883-4.446-1.883s-3.415.628-4.46 1.883c-1.045 1.256-1.567 2.888-1.567 4.897 0 2.01.522 3.642 1.567 4.897 1.045 1.256 2.532 1.884 4.46 1.884zm20.649 3.013c-1.802 0-3.406-.403-4.811-1.21-1.406-.808-2.51-1.951-3.311-3.431-.802-1.48-1.203-3.197-1.203-5.153 0-1.955.401-3.672 1.203-5.152s1.905-2.624 3.31-3.431c1.406-.807 3.01-1.21 4.812-1.21 1.802 0 3.405.403 4.81 1.21 1.406.807 2.51 1.95 3.311 3.43.802 1.48 1.203 3.198 1.203 5.153 0 1.956-.4 3.673-1.203 5.153-.801 1.48-1.905 2.623-3.31 3.43-1.406.808-3.01 1.211-4.811 1.211zm0-3.013c1.928 0 3.41-.628 4.446-1.884 1.036-1.255 1.554-2.888 1.554-4.897 0-2.009-.518-3.641-1.554-4.897-1.036-1.255-2.518-1.883-4.446-1.883s-3.415.628-4.46 1.883c-1.045 1.256-1.567 2.888-1.567 4.897 0 2.01.522 3.642 1.567 4.897 1.045 1.256 2.532 1.884 4.46 1.884zm12.432-16.198h3.136V252.8h-3.136v-18.835zm3.406 8.88l7-8.88h3.703l-7.082 8.852 7.109 9.983h-3.73l-7-9.956zm12 .349h8.378v2.475h-8.378v-2.475zm20.19 9.982c-1.802 0-3.406-.403-4.811-1.21-1.406-.808-2.51-1.951-3.311-3.431-.802-1.48-1.203-3.197-1.203-5.153 0-1.955.4-3.672 1.203-5.152.802-1.48 1.905-2.624 3.31-3.431 1.406-.807 3.01-1.21 4.812-1.21 1.801 0 3.405.403 4.81 1.21 1.406.807 2.51 1.95 3.311 3.43.802 1.48 1.203 3.198 1.203 5.153 0 1.956-.4 3.673-1.203 5.153-.802 1.48-1.905 2.623-3.31 3.43-1.406.808-3.01 1.211-4.811 1.211zm0-3.013c1.927 0 3.41-.628 4.446-1.884 1.036-1.255 1.554-2.888 1.554-4.897 0-2.009-.518-3.641-1.554-4.897-1.037-1.255-2.519-1.883-4.446-1.883-1.928 0-3.415.628-4.46 1.883-1.045 1.256-1.568 2.888-1.568 4.897 0 2.01.523 3.642 1.568 4.897 1.045 1.256 2.532 1.884 4.46 1.884zm12.432-16.198h11.622v2.96h-8.487v4.574h6.541v2.96h-6.54v8.34h-3.136v-18.834zm14.163 0H184.7v2.96h-8.486v4.574h6.54v2.96h-6.54v8.34h-3.135v-18.834z" fill="#FFF"/></g></svg>
